<svg id="google" xmlns="http://www.w3.org/2000/svg" width="18.522" height="18.529" viewBox="0 0 18.522 18.529">
  <path id="Shape" d="M4.1,6.194,3.46,8.6,1.1,8.651A9.284,9.284,0,0,1,1.035,0h0l2.1.385.919,2.086A5.531,5.531,0,0,0,4.1,6.194Z" transform="translate(0 5.004)" fill="#fbbb00"/>
  <path id="Shape-2" data-name="Shape" d="M8.9,0a9.278,9.278,0,0,1,.162,1.731,9.286,9.286,0,0,1-.2,1.934A9.263,9.263,0,0,1,5.594,8.956h0L2.951,8.82,2.577,6.485a5.521,5.521,0,0,0,2.375-2.82H0V0H8.9Z" transform="translate(9.464 7.534)" fill="#518ef8"/>
  <path id="Shape-3" data-name="Shape" d="M13.954,5.292h0a9.219,9.219,0,0,1-5.8,2.04A9.259,9.259,0,0,1,0,2.458L3,0A5.507,5.507,0,0,0,8.157,3.575a5.474,5.474,0,0,0,2.781-.753Z" transform="translate(1.104 11.198)" fill="#28b446"/>
  <path id="Shape-4" data-name="Shape" d="M14.137,2.133l-3,2.457A5.506,5.506,0,0,0,3.017,7.475L0,5H0A9.261,9.261,0,0,1,14.137,2.133Z" transform="translate(1.035)" fill="#f14336"/>
</svg>
