<svg xmlns="http://www.w3.org/2000/svg" width="20.271" height="16.471" viewBox="0 0 20.271 16.471">
  <path id="twitter" d="M20.271,1.956A8.934,8.934,0,0,1,18.187,4.1c.013.18.013.36.013.54A11.742,11.742,0,0,1,6.38,16.471,11.736,11.736,0,0,1,0,14.6a8.586,8.586,0,0,0,1,.051,8.318,8.318,0,0,0,5.158-1.776A4.162,4.162,0,0,1,2.277,10a5.233,5.233,0,0,0,.785.064,4.39,4.39,0,0,0,1.093-.142A4.156,4.156,0,0,1,.823,5.842V5.79A4.183,4.183,0,0,0,2.7,6.318,4.164,4.164,0,0,1,1.415.759,11.807,11.807,0,0,0,9.981,5.108a4.693,4.693,0,0,1-.1-.952,4.158,4.158,0,0,1,7.19-2.844,8.177,8.177,0,0,0,2.637-1A4.145,4.145,0,0,1,17.879,2.6,8.327,8.327,0,0,0,20.271,1.956Z" fill="#fff"/>
</svg>
